# xmcd
#
# Track frame offsets: 
#        187
#        16144
#        38094
#
# Disc length: 718 seconds
#
# Revision: 1
# Processed by: cddbd v1.5.2PL0 Copyright (c) Steve Scherf et al.
# Submitted via: ExactAudioCopy v1.0b3
#
DISCID=1602cc03
DTITLE=Dual Dream - I Say Hello
DYEAR=1900
DGENRE=J-POP
TTITLE0=I Say Hello
TTITLE1=See You Tomorrow
TTITLE2=I Say Hello [オリジナルカラオケ]
EXTD=
EXTT0=
EXTT1=
EXTT2=
PLAYORDER=
